PathFileType	4	(X/Y/Z)	C:\Users\WrightLab\Desktop\Jo\P1_boxCal23.trc
DataRate	CameraRate	NumFrames	NumMarkers	Units	OrigDataRate	OrigDataStartFrame	OrigNumFrames
100.00	100.00	       87	19	mm	100.00	1	       701
Frame#	Time	Headset_Front			Headset_Back			Headset_Left			Headset_Right			Left_Shoulder			Right_Shoulder			Sternum			C7			Left Elbow			Right Elbow			Left Wrist			Right Wrist			Left ASIS			Right ASIS			S2			Left Knee			Right Knee			Left Ankle			Right Ankle			
		X1	Y1	Z1	X2	Y2	Z2	X3	Y3	Z3	X4	Y4	Z4	X5	Y5	Z5	X6	Y6	Z6	X7	Y7	Z7	X8	Y8	Z8	X9	Y9	Z9	X10	Y10	Z10	X11	Y11	Z11	X12	Y12	Z12	X13	Y13	Z13	X14	Y14	Z14	X15	Y15	Z15	X16	Y16	Z16	X17	Y17	Z17	X18	Y18	Z18	X19	Y19	Z19	

1	0.000																																																										
2	0.010																																																										
3	0.020																																																										
4	0.030																																																										
5	0.040																																																										
6	0.050																																																										
7	0.060																																																										
8	0.070																																																										
9	0.080																																																										
10	0.090																																																										
11	0.100																																																										
12	0.110																																																										
13	0.120																																																										
14	0.130																																																										
15	0.140																																																										
16	0.150																																																										
17	0.160																																																										
18	0.170																																																										
19	0.180																																																										
20	0.190																																																										
21	0.200																																																										
22	0.210																																																										
23	0.220																																																										
24	0.230																																																										
25	0.240																																																										
26	0.250																																																										
27	0.260																																																										
28	0.270																																																										
29	0.280																																																										
30	0.290																																																										
31	0.300																																																										
32	0.310																																																										
33	0.320																																																										
34	0.330																																																										
35	0.340																																																										
36	0.350																																																										
37	0.360																																																										
38	0.370																																																										
39	0.380																																																										
40	0.390																																																										
41	0.400																																																										
42	0.410																																																										
43	0.420																																																										
44	0.430																																																										
45	0.440																																																										
46	0.450																																																										
47	0.460																																																										
48	0.470																																																										
49	0.480																																																										
50	0.490																																																										
51	0.500																																																										
52	0.510																																																										
53	0.520																																																										
54	0.530																																																										
55	0.540																																																										
56	0.550																																																										
57	0.560																																																										
58	0.570																																																										
59	0.580																																																										
60	0.590																																																										
61	0.600																																																										
62	0.610																																																										
63	0.620																																																										
64	0.630																																																										
65	0.640																																																										
66	0.650																																																										
67	0.660																																																										
68	0.670																																																										
69	0.680																																																										
70	0.690																																																										
71	0.700																																																										
72	0.710																																																										
73	0.720																																																										
74	0.730																																																										
75	0.740																																																										
76	0.750																																																										
77	0.760																																																										
78	0.770																																																										
79	0.780																																																										
80	0.790																																																										
81	0.800																																																										
82	0.810																																		-428.70493	895.20819	1995.87976																						
83	0.820																																		-433.25610	893.85547	1989.97229																						
84	0.830																																		-436.59119	891.23987	1985.02539																						
85	0.840																																		-441.39999	891.27130	1978.81506																						
86	0.850																																		-445.47504	890.45105	1972.92224																						
87	0.860																																		-449.25757	887.48157	1967.10205																						
